<?xml version="1.0" encoding="UTF-8" standalone="no"?>
<!-- Created with Inkscape (http://www.inkscape.org/) -->

<svg
   version="1.1"
   id="svg1"
   width="1333.3333"
   height="1333.3333"
   viewBox="0 0 1333.3333 1333.3333"
   sodipodi:docname="Flower3a.svg"
   inkscape:version="1.3.1 (6036e22fae, 2023-11-19, custom)"
   xmlns:inkscape="http://www.inkscape.org/namespaces/inkscape"
   xmlns:sodipodi="http://sodipodi.sourceforge.net/DTD/sodipodi-0.dtd"
   xmlns="http://www.w3.org/2000/svg"
   xmlns:svg="http://www.w3.org/2000/svg">
  <defs
     id="defs1" />
  <sodipodi:namedview
     id="namedview1"
     pagecolor="#ffffff"
     bordercolor="#000000"
     borderopacity="0.25"
     inkscape:showpageshadow="2"
     inkscape:pageopacity="0.0"
     inkscape:pagecheckerboard="0"
     inkscape:deskcolor="#d1d1d1"
     showgrid="false"
     inkscape:zoom="0.58125004"
     inkscape:cx="666.66663"
     inkscape:cy="666.66663"
     inkscape:window-width="1920"
     inkscape:window-height="1031"
     inkscape:window-x="0"
     inkscape:window-y="25"
     inkscape:window-maximized="1"
     inkscape:current-layer="layer1" />
  <g
     inkscape:groupmode="layer"
     id="layer1"
     inkscape:label="Layer 1">
    <path
       style="fill:#000000"
       d="m 955.3052,1162.0785 c -3.68211,-1.0272 -11.23348,-3.936 -16.78084,-6.4641 -18.57029,-8.4627 -18.24754,-8.4268 -38.06406,-4.2351 -2.74583,0.5808 -2.84137,0.2592 -2.15893,-7.2669 0.39272,-4.331 0.33646,-9.379 -0.12502,-11.2177 -0.46149,-1.8387 -5.5762,-9.6552 -11.36603,-17.3699 -12.8347,-17.1019 -15.49075,-23.4437 -15.43688,-36.8582 0.0457,-11.385 2.83995,-19.0205 9.9055,-27.0677 4.25107,-4.8417 4.27297,-4.9323 1.19246,-4.9333 -4.86648,-0 -18.66703,-7.1783 -23.40315,-12.1702 -2.34577,-2.4725 -5.64577,-7.4955 -7.33334,-11.1621 -2.81346,-6.113 -3.0683,-8.5156 -3.0683,-28.92839 0,-13.07046 -0.55049,-22.8078 -1.33333,-23.58438 -3.7194,-3.68967 -44.66666,-11.96492 -44.66666,-9.02692 0,0.4255 3.45,3.12569 7.66666,6.00043 9.82318,6.697 23.09686,20.56271 27.02736,28.23281 4.17291,8.14315 5.17024,23.11915 2.07872,31.21425 -3.49863,9.161 -17.67334,20.7588 -25.37118,20.7588 -2.4518,0 -3.08401,-2.4766 -4.66586,-18.2786 -3.19885,-31.95481 -18.68691,-44.69866 -56.65066,-46.61312 -16.56961,-0.83558 -47.44499,0.4828 -47.38397,2.02329 0.0189,0.47766 2.44075,1.97831 5.38184,3.33479 18.70267,8.62594 32.33826,28.37574 33.2784,48.20034 1.22627,25.8584 -3.29262,31.4034 -13.36131,16.3955 -13.17728,-19.6415 -30.98738,-35.6569 -45.98643,-41.3525 -6.64771,-2.5243 -10.5134,-3.0298 -22.68023,-2.9656 -9.27189,0.049 -17.85449,0.9106 -23.33333,2.3425 -10.94094,2.8595 -42.66667,14.4944 -42.66667,15.6473 0,0.4754 6.15,1.23 13.66667,1.6769 17.09748,1.0166 26.59762,3.4479 41,10.4927 9.21386,4.507 13.59561,7.8084 23.43033,17.6535 16.95767,16.9755 23.2916,28.7764 15.44527,28.7764 -1.39778,0 -9.66661,-3.0575 -18.37518,-6.7944 -29.40902,-12.6195 -67.86386,-21.0091 -88.93384,-19.4025 -13.37812,1.02 -59.56658,16.1276 -59.56658,19.4833 0,0.527 2.25,1.6358 5,2.464 2.75,0.8282 8.85616,4.0732 13.56924,7.211 11.70314,7.7917 16.35966,16.0388 17.0627,30.2196 0.57517,11.6015 -1.7973,22.509 -5.36956,24.6866 -2.01511,1.2285 -3.17326,0.6024 -7.15496,-3.8676 -18.09758,-20.3173 -28.20441,-26.9526 -45.85955,-30.1078 -14.20593,-2.5387 -27.43298,-0.3652 -60.58119,9.955 -38.99572,12.1406 -47.52444,13.9857 -72,15.5765 -29.09751,1.8911 -97.74209,-1.7814 -104.99999,-5.6176 -3.02195,-1.5973 -2.98466,-4.6971 0.0762,-6.3352 1.32524,-0.7092 11.3489,-3.7936 22.27478,-6.8541 62.32958,-17.4596 93.87099,-34.3848 127.8874,-68.6247 19.88124,-20.0119 34.28175,-43.8214 38.87475,-64.2747 3.2779,-14.59698 3.74338,-15.71743 6.52969,-15.71743 1.53304,0 4.62344,2.70319 7.62163,6.66667 10.70122,14.14656 13.25916,32.90176 7.12279,52.22536 -1.80368,5.6798 -3.0853,10.521 -2.84805,10.7583 1.13977,1.1398 34.53835,-35.371 42.46887,-46.42628 17.32836,-24.15597 21.14573,-35.41722 21.2059,-62.55738 0.0622,-28.04547 -3.67099,-37.14501 -24.86748,-60.61411 -6.24057,-6.90967 -11.3465,-13.48675 -11.3465,-14.61572 0,-1.12898 1.62766,-2.46121 3.61702,-2.9605 7.48695,-1.87911 24.50414,3.85465 40.04965,13.4943 l 5.66666,3.51385 -0.0289,-5.74224 c -0.0461,-9.17448 -4.87041,-28.53328 -9.40717,-37.74874 l -4.1782,-8.48713 -8.85955,7.32512 c -21.87253,18.0843 -42.45363,20.79783 -59.43433,7.83617 l -5.79065,-4.4201 -0.87729,5.48624 c -2.21806,13.871 -10.79503,25.09802 -23.74155,31.07706 -8.17099,3.77357 -8.83253,3.85581 -31.01573,3.85581 h -22.66667 l -8.9736,5.67063 -8.9736,5.67064 -0.82677,-3.67064 c -3.41023,-15.14043 -3.52883,-15.2887 -20.55936,-25.70359 -21.07146,-12.88609 -30.40877,-24.92877 -31.68836,-40.86968 -0.45396,-5.65545 0.0262,-10.40184 1.51155,-14.94318 1.19725,-3.66038 2.17681,-7.06063 2.17681,-7.5561 0,-0.49547 -2.58173,-0.51371 -5.73719,-0.0405 -11.89001,1.78302 -28.55743,-4.65569 -35.15621,-13.58102 -4.91846,-6.65257 -9.35556,-16.61895 -13.75395,-30.89333 -3.86668,-12.54882 -4.93029,-14.53566 -10.82042,-20.21278 -3.59272,-3.4628 -6.53222,-6.98969 -6.53222,-7.83753 0,-2.4815 2.88927,-7.22387 5.55255,-9.11383 4.05573,-2.87809 6.4452,-8.96757 9.72497,-24.78379 4.64654,-22.40721 10.88674,-33.21694 22.94552,-39.74789 7.47357,-4.04764 19.9913,-6.67784 26.03175,-5.46975 3.74873,0.74974 4.07944,0.56904 3.12272,-1.70621 -5.8599,-13.93589 -6.62358,-25.83613 -2.28712,-35.63942 3.81748,-8.63006 13.58977,-18.59084 27.28972,-27.8161 9.97254,-6.7153 12.23053,-8.9419 15.19255,-14.98134 1.9135,-3.90156 5.07883,-8.03873 7.03406,-9.19372 3.34097,-1.97356 3.98359,-1.89482 10.67586,1.30798 5.99701,2.87006 8.2991,3.28203 14.58582,2.61019 34.38361,-3.67444 44.34637,-2.34072 55.43662,7.4213 6.20062,5.45801 14.02484,18.84546 14.02725,24.00101 0.002,4.01689 2.15231,3.73741 6.60701,-0.85868 7.06208,-7.28622 18.97661,-12.06263 30.08966,-12.06263 7.86371,0 10.74488,0.68652 18,4.28902 4.75074,2.35897 12.93641,7.8233 18.19038,12.14295 10.38892,8.54146 17.95529,12.23469 25.06537,12.23469 6.90665,0 8.88449,3.71315 7.85842,14.75319 -0.78908,8.49026 -0.56474,9.44075 5.20671,22.05968 7.36369,16.10029 8.96645,21.68616 8.97606,31.28294 0.0147,14.68828 -7.23634,27.03901 -20.23187,34.46107 l -6.58976,3.76357 7.25059,4.09198 c 8.80253,4.96785 14.75354,11.90635 18.27221,21.30425 4.76099,12.71599 2.82874,26.40158 -6.69236,47.39991 -6.27663,13.84281 -5.68077,22.84802 2.28842,34.58486 5.58273,8.22212 13.7102,24.64599 13.7102,27.70536 0,4.10851 1.74622,3.82931 7.8552,-1.25597 10.80421,-8.99372 20.72124,-12.25683 31.24823,-10.28195 6.50415,1.22018 7.18052,4.25802 1.91073,8.5819 -12.75281,10.46373 -20.8253,22.16532 -26.33139,38.16906 -1.39158,4.0447 -4.41551,18.90988 -6.71985,33.03373 -7.71301,47.27507 -15.19875,70.63501 -30.12666,94.01306 -2.45839,3.85003 -3.94958,7.00003 -3.31376,7.00003 4.39494,0 59.94347,-54.10459 75.53916,-73.57556 15.5204,-19.37697 24.33619,-36.39945 29.846,-57.62985 8.7013,-33.52793 6.09591,-60.9284 -9.10241,-95.72851 -8.65278,-19.81255 -8.89521,-21.59641 -3.01157,-22.16004 8.33966,-0.79891 25.36914,8.67864 35.25435,19.62039 l 4.95196,5.48124 v -7.67868 c 0,-12.64678 -3.81713,-41.34039 -7.36835,-55.38834 -8.79269,-34.78223 -26.78565,-65.29326 -51.00112,-86.48367 -14.96632,-13.09668 -29.58282,-19.26788 -49.88779,-21.063 -14.30535,-1.26471 -15.74273,-1.7561 -15.74273,-5.38188 0,-3.16643 5.27068,-6.87186 14.77497,-10.38719 21.23295,-7.8534 48.82851,-3.89883 76.86333,11.01486 6.23117,3.31479 11.59673,6.02689 11.92347,6.02689 1.76989,0 -13.90094,-18.45833 -25.50053,-30.03654 -19.87331,-19.83666 -46.00449,-36.36264 -68.78533,-43.50145 -7.90585,-2.47746 -12.81045,-3.09678 -23.94257,-3.02332 -15.66217,0.10334 -26.21984,3.0732 -42.25135,11.88522 -9.33023,5.12854 -13.39211,5.82333 -14.66419,2.50833 -1.35026,-3.5187 2.64547,-8.61195 14.0631,-17.92588 19.96675,-16.28788 36.00858,-21.79433 61.22494,-21.01582 17.9279,0.5535 18.00249,0.67663 -7.03917,-11.62118 -29.78215,-14.62584 -48.56921,-19.26935 -77.96137,-19.26935 -25.02616,0 -35.77915,3.15335 -58.03862,17.02001 -3.66667,2.28416 -7.86667,4.3391 -9.33334,4.56651 -2.30517,0.35743 -2.65206,-0.30951 -2.55894,-4.91985 0.17405,-8.61726 6.75412,-20.18223 17.89228,-31.44704 11.65371,-11.78622 21.72417,-17.3607 37.47846,-20.74613 5.78684,-1.24353 10.52153,-2.65646 10.52153,-3.13984 0,-1.0891 -28.11218,-17.26397 -31.58216,-18.17139 -1.69127,-0.44228 -5.5836,1.79768 -11.80392,6.79292 -14.12185,11.34057 -24.37104,15.94474 -36.75676,16.51199 -11.60017,0.53127 -18.64458,-1.8093 -26.68032,-8.86477 l -4.68769,-4.11585 -2.82525,9.59006 c -3.60908,12.25063 -9.9766,19.92337 -20.77057,25.02811 -10.51195,4.97137 -18.55597,5.79802 -37.45708,3.84931 l -15.7404,-1.62284 -10.50773,5.50107 c -5.77925,3.02558 -10.74269,5.50106 -11.02986,5.50106 -0.28717,0 -0.94754,-2.85 -1.46749,-6.33333 -1.44454,-9.67753 -4.25971,-13.15112 -18.28468,-22.56111 -20.80542,-13.95929 -29.18965,-24.69678 -31.05564,-39.77222 -0.75831,-6.12636 -0.10706,-9.84832 4.0409,-23.09421 0.91595,-2.92492 0.71564,-3.04669 -3.66088,-2.22565 -6.77787,1.27154 -19.51947,-1.5019 -26.38011,-5.74209 -3.29065,-2.03377 -8.1623,-6.81716 -10.82589,-10.62975 -4.56368,-6.53232 -6.51377,-11.66468 -13.06644,-34.38889 -2.11883,-7.34798 -4.03972,-10.81682 -8.75295,-15.80653 -3.32111,-3.51593 -6.03839,-7.5594 -6.03839,-8.98549 0,-1.42609 2.15984,-4.81315 4.79965,-7.5268 6.52497,-6.7075 8.02717,-9.98938 11.2022,-24.47358 6.64203,-30.30045 20.61611,-43.95218 45.14721,-44.10575 l 9.18587,-0.0575 -2.64362,-7.48187 c -3.3236,-9.40633 -2.7291,-22.25979 1.40394,-30.35368 4.30747,-8.43549 14.30346,-17.81218 27.41161,-25.7133 7.37405,-4.44482 12.65489,-8.62785 14,-11.08963 8.13497,-14.88826 9.72567,-15.7818 19.93704,-11.19922 7.94635,3.56611 8.28665,3.59939 27.80505,2.71862 16.2226,-0.73205 21.0931,-0.50421 27.2052,1.27263 12.84962,3.73548 24.28951,16.44153 27.20502,30.21604 1.47876,6.98649 1.81956,7.10791 7.05299,2.5129 13.20916,-11.5978 32.34732,-14.6583 47.00587,-7.517 4.0616,1.97871 12.4616,7.89861 18.66667,13.15532 11.89409,10.07626 17.45666,13.18211 23.60912,13.18211 2.06038,0 5.14281,0.97826 6.84984,2.17391 2.92518,2.04888 3.05179,2.72785 2.20123,11.80457 -0.87442,9.33135 -0.70511,10.12363 5.44769,25.49276 5.88454,14.69904 6.35592,16.74196 6.42878,27.86209 0.067,10.22361 -0.40833,12.95328 -3.21084,18.43969 -3.66502,7.17493 -11.11679,14.52553 -18.10258,17.85682 -2.53437,1.20856 -4.60688,2.53626 -4.60557,2.95044 0.001,0.41417 2.70493,2.46043 6.00804,4.54723 15.42516,9.74514 22.70682,28.83247 17.88147,46.87248 -0.78461,2.93333 -4.14027,11.19756 -7.45701,18.36494 -3.31675,7.16738 -6.33574,15.30769 -6.70887,18.08956 -0.63605,4.74215 -0.27405,5.39154 5.79779,10.4005 3.5619,2.93839 10.50529,8.18583 15.42973,11.66098 10.17708,7.18189 9.46744,7.65804 10.95432,-7.35014 2.10049,-21.20177 11.52906,-35.92464 27.63504,-43.15257 4.5761,-2.05363 10.89034,-4.02357 14.03164,-4.37764 8.25794,-0.93079 8.71443,1.75796 2.29429,13.51367 -4.98007,9.11884 -5.19449,10.01985 -5.12057,21.51737 0.0591,9.19982 0.73014,13.45293 2.87554,18.22649 7.9869,17.77104 24.57734,35.89061 50.37619,55.01938 8.8,6.52483 20.95,15.99382 27,21.0422 l 11,9.17888 v -9.15527 c 0,-31.32107 13.22203,-49.55104 42.40609,-58.4677 8.75857,-2.67602 11.47554,-3.04879 13,-1.7836 3.00304,2.4923 2.40469,4.17831 -4.74341,13.3658 -9.55448,12.28039 -12.24445,20.1383 -12.97666,37.90714 -0.73662,17.87619 2.2439,34.13571 9.67871,52.79981 4.8466,12.16674 17.49374,38.53352 18.48306,38.53352 0.26958,0 1.80975,-5.71061 3.4226,-12.69025 5.76924,-24.9665 17.38478,-40.90625 33.14847,-45.48888 13.85575,-4.02797 37.85822,-0.0407 42.51216,7.06214 2.8122,4.29196 1.67074,5.23524 -10.34631,8.55002 -21.85336,6.02804 -33.01839,17.38481 -37.26045,37.9003 -2.22346,10.75315 -1.0198,24.96767 5.30395,62.6366 5.36402,31.95213 7.84358,51.42138 8.38608,65.84675 l 0.31904,8.48335 8.98897,-13.30337 c 11.38369,-16.84747 26.23572,-31.16149 38.1643,-36.78182 7.59773,-3.57979 10.35266,-4.16958 19.51339,-4.17757 8.70379,-0.008 11.89347,0.60153 17.33333,3.31005 5.25647,2.6172 6.66667,4.00373 6.66667,6.55476 0,2.90509 -0.97417,3.47487 -9.54167,5.58086 -18.19837,4.47336 -30.96377,12.87444 -41.05876,27.02129 -7.71163,10.80689 -9.95159,16.21762 -19.57158,47.27602 -4.39774,14.19825 -10.94359,32.77058 -14.54633,41.27186 -3.60274,8.50128 -6.41496,15.59142 -6.24938,15.75586 0.16558,0.16444 5.10106,-2.92104 10.96772,-6.85663 14.62586,-9.81158 22.45808,-12.61802 35.21446,-12.61802 12.95927,0 19.76802,2.32427 30.95282,10.56621 10.78567,7.94783 16.4038,14.86732 15.18615,18.7038 -1.17277,3.69508 -3.29483,3.46026 -14.46328,-1.60047 -8.73756,-3.95923 -10.69981,-4.33046 -22.89015,-4.33047 -12.55875,-10e-6 -13.83681,0.26234 -22,4.51612 -17.56858,9.15485 -27.66665,21.82476 -60.66666,76.11758 -8.06667,13.27157 -20.1803,31.75697 -26.91919,41.07867 -6.73889,9.32171 -13.87802,19.20942 -15.86474,21.9727 -1.98672,2.76329 -3.37308,5.25216 -3.08081,5.53084 0.98365,0.93789 51.59315,-20.06641 59.43484,-24.66704 4.26978,-2.50504 12.93354,-9.65461 19.25281,-15.88795 9.73184,-9.59949 12.42726,-13.27115 17.61878,-23.99999 3.37106,-6.96667 7.63864,-18.33313 9.48351,-25.2588 1.84487,-6.92568 4.25405,-13.49188 5.35374,-14.59157 1.77702,-1.77702 2.35104,-1.66911 5.16034,0.97009 1.7385,1.63324 5.63886,8.19944 8.66746,14.59157 9.17219,19.35869 9.00833,36.20948 -0.52683,54.17748 -2.51895,4.7467 -4.57991,8.84469 -4.57991,9.10666 0,0.26197 4.05,0.0362 8.99999,-0.50181 17.13228,-1.86194 38.49608,1.66755 55.35148,9.14454 7.55328,3.35061 7.73239,3.3659 10.46458,0.8933 1.52887,-1.38361 5.23113,-6.71297 8.22724,-11.84302 15.05864,-25.78395 34.66029,-35.19821 56.9567,-27.35511 4.03333,1.41878 7.63333,2.59762 8,2.61962 0.36666,0.022 0.71072,-4.08578 0.76458,-9.12843 0.0764,-7.15371 0.90075,-10.8094 3.75141,-16.63594 6.34693,-12.97265 17.43349,-19.86823 41.32847,-25.70533 12.92609,-3.1576 15.22476,-4.1786 21.04446,-9.34735 8.1167,-7.20877 12.9536,-7.71097 17.3247,-1.79877 3.8518,5.20982 11.0601,8.58642 25.4794,11.93534 29.4069,6.82983 42.307,20.48326 42.307,44.77754 0,5.47249 0.2344,9.94998 0.521,9.94998 0.2866,0 3.1366,-1.18682 6.3334,-2.63738 8.0592,-3.65697 26.155,-3.69225 34.1425,-0.0666 8.3583,3.794 17.4444,13.67237 26.4019,28.70394 7.0593,11.84624 8.7355,13.75703 15.0288,17.13214 9.9678,5.34576 11.1465,8.60086 6.2614,17.29121 -3.83,6.81335 -3.8477,6.95115 -3.533,27.38567 0.2506,16.26584 -0.1541,22.03354 -1.9453,27.72834 -4.3139,13.715 -17.696,24.5765 -32.7826,26.6078 l -6.2385,0.8399 5.1223,6.4802 c 6.9307,8.768 9.7731,17.7887 9.1394,29.0048 -0.7081,12.5315 -5.3862,21.3039 -19.1689,35.9451 -11.1908,11.888 -15.2824,18.4926 -15.2824,24.6687 0,4.8654 -4.357,8.067 -9.6141,7.0647 -13.3262,-2.5408 -14.8512,-2.4033 -29.0526,2.6205 -11.9355,4.2222 -15.7696,4.9731 -26,5.0917 -9.9606,0.1156 -13.0423,-0.3744 -18.1331,-2.8828 -6.9358,-3.4175 -15.1148,-11.0398 -18.1854,-16.9476 l -2.0633,-3.9696 -2.1424,3.303 c -4.48272,6.9108 -12.93194,14.9914 -18.76718,17.9483 -7.93135,4.0191 -21.20305,5.2401 -30.07002,2.7665 z m 24.41452,-11.2951 c 6.98029,-3.5979 12.92397,-10.2467 16.79147,-18.7835 3.45108,-7.6176 6.23091,-29.9097 8.32421,-66.7524 l 0.876,-15.419 -7.86886,-2.8692 c -12.26441,-4.4718 -17.35742,-8.9704 -25.17811,-22.2396 -1.20378,-2.0424 -4.62307,-1.057 -34.66666,9.9906 -18.33214,6.7411 -35.07224,13.1515 -37.20022,14.2453 -2.12798,1.0939 -6.73285,4.8526 -10.23304,8.3528 -14.39899,14.399 -12.95655,30.9635 4.53034,52.0249 8.08907,9.7425 12.25568,17.1824 13.58189,24.2517 l 0.89943,4.7944 8.87856,0.5521 c 6.6135,0.4113 11.76984,1.8548 20.21188,5.6584 6.23333,2.8084 13.73333,5.8845 16.66667,6.8356 8.03755,2.6062 18.6253,2.3275 24.38644,-0.6421 z m 87.01828,-3.5293 c 11.9259,-4.0635 15.3185,-4.6829 23.5953,-4.3075 7.9414,0.3602 9.6719,0.077 9.6959,-1.5874 0.072,-4.9944 6.1541,-14.6193 15.2609,-24.1513 11.4324,-11.9662 15.8836,-18.5214 18.0567,-26.5917 3.0968,-11.5006 -2.1048,-24.3791 -13.4882,-33.3948 -2.9501,-2.3366 -19.7289,-10.2259 -38.2251,-17.9734 -29.1213,-12.1979 -33.1224,-13.5529 -34.3002,-11.6159 -6.5008,10.6912 -19.279,19.3965 -31.066,21.1641 l -5.751,0.8624 0.4085,37.504 c 0.3908,35.8797 0.542,37.7989 3.4909,44.3139 3.3079,7.308 10.4461,15.0872 16.9176,18.4367 7.0464,3.647 19.682,2.698 35.4047,-2.6591 z m -665.40469,-26.9495 c 8.43333,-2.2661 24.03333,-6.8909 34.66666,-10.2773 27.25109,-8.6787 39.17225,-11.3441 50.66667,-11.3282 20.26456,0.028 36.52529,5.8622 51.82426,18.5941 4.4324,3.6887 8.6852,6.7067 9.45066,6.7067 2.04771,0 1.69456,-6.6362 -0.73214,-13.7582 -2.65384,-7.7886 -11.39797,-15.7896 -21.30831,-19.4976 -7.52105,-2.814 -31.44012,-8.0722 -36.77725,-8.0849 -1.71814,-0 -5.37389,-0.6323 -8.12389,-1.396 -4.00884,-1.1134 -5,-2.025 -5,-4.5989 0,-3.6645 0.0893,-3.687 22.87188,-5.7616 11.40992,-1.039 17.70687,-2.532 32,-7.5869 30.13252,-10.6566 38.31838,-12.803 51.79478,-13.5809 20.85843,-1.2039 49.89593,3.9296 76.97658,13.6086 l 12.80125,4.5753 -4.55558,-4.7267 c -6.68532,-6.9365 -21.75511,-16.5659 -31.40958,-20.0703 -23.07824,-8.377 -53.22106,-6.431 -84.84311,5.4774 -9.91477,3.7338 -15.09349,4.2946 -16.01161,1.7341 -1.43949,-4.0146 3.45982,-7.3586 28.83533,-19.6812 46.71683,-22.6862 69.15539,-30.3154 92.87338,-31.57749 27.2443,-1.44967 40.97681,4.35239 63.20883,26.70619 l 14.54217,14.6219 -0.88086,-6.4266 c -0.48448,-3.5346 -2.30955,-9.5472 -4.05572,-13.3614 -8.62811,-18.8463 -26.89016,-28.77294 -57.43042,-31.21737 -13.79558,-1.10419 -18.05066,-2.56004 -18.05066,-6.17592 0,-4.7242 38.88887,-8.97907 83.33332,-9.11758 31.70292,-0.0988 33.75476,0.0482 41.94911,3.00543 11.8076,4.2612 18.82989,8.60117 25.3336,15.65686 6.87088,7.45398 10.17378,15.04848 13.09904,30.11908 1.25671,6.4743 2.88492,11.5766 3.61825,11.3384 0.73333,-0.2381 3.35399,-3.0752 5.82368,-6.3045 4.28864,-5.6078 4.46166,-6.2724 3.85183,-14.7956 -0.45681,-6.3845 -1.63176,-10.6189 -4.12889,-14.8799 -5.34917,-9.12766 -19.07413,-20.77555 -35.39389,-30.03755 -8.12435,-4.61083 -15.14109,-8.98126 -15.59275,-9.71207 -0.45166,-0.73081 0.28757,-2.56783 1.64274,-4.08228 2.35724,-2.63428 3.41677,-2.72071 24.46395,-1.99561 13.95444,0.48074 25.07749,1.56979 30.41518,2.97792 4.62835,1.22101 8.52835,2.00685 8.66666,1.74631 0.13832,-0.26054 1.23968,-2.36464 2.44747,-4.67578 l 2.19599,-4.20207 -10.86265,-3.61671 c -14.89348,-4.95877 -34.50869,-5.96175 -50.2571,-2.5698 -14.73845,3.17443 -21.74043,3.30001 -22.31331,0.40019 -0.2399,-1.21434 3.1239,-6.19712 7.54854,-11.18162 4.38971,-4.94513 9.82132,-12.44341 12.07025,-16.66284 3.68527,-6.91426 4.08897,-8.84748 4.08897,-19.58086 0,-11.22838 -2.8137,-24.38422 -5.21517,-24.38422 -0.53048,0 -2.04771,3.45 -3.37163,7.66667 -6.12594,19.51104 -19.47344,39.92519 -33.86738,51.79798 -11.08717,9.14521 -23.14405,15.34817 -52.87915,27.20495 -13.2,5.26346 -30.17326,12.25472 -37.71837,15.53612 -13.34885,5.80549 -18.86046,6.78542 -19.92761,3.543 -0.28684,-0.87153 4.46616,-7.05484 10.56223,-13.74067 26.21596,-28.75225 36.61253,-43.08665 63.83117,-88.00805 29.29502,-48.34825 40.962,-62.39302 59.25258,-71.32857 7.83511,-3.82772 20.60825,-7.30314 27.28013,-7.4226 4.51834,-0.0809 4.57754,-0.14243 1.38653,-1.44092 -1.83333,-0.74603 -7.29391,-1.14343 -12.13462,-0.88313 -18.06432,0.97138 -36.56945,13.85109 -64.86997,45.14999 -11.41831,12.62805 -16.38462,17.2226 -18.32874,16.95667 -4.97918,-0.68109 -3.93873,-5.88566 3.07926,-15.40314 23.12649,-31.36312 33.281,-53.34585 50.94866,-110.29495 8.93312,-28.79463 22.03679,-47.73792 40.48441,-58.52623 4.88381,-2.85609 8.6685,-5.40405 8.41042,-5.66213 -1.51212,-1.51211 -15.24179,4.46128 -22.09492,9.61287 -14.09469,10.59517 -26.82156,27.65017 -41.5294,55.65261 -4.38707,8.3526 -9.22812,16.31926 -10.75788,17.70368 -2.63362,2.38339 -2.87175,2.39356 -4.48197,0.19146 -1.39535,-1.90827 -1.23656,-4.77675 0.88474,-15.9823 4.62659,-24.43943 3.77775,-45.72473 -3.54882,-88.98996 -7.34703,-43.386 -8.78809,-63.23837 -5.51675,-75.99999 4.0975,-15.98449 13.34975,-27.78117 28.04461,-35.75704 l 6.58902,-3.5763 -4.58902,-0.45648 c -13.98346,-1.39098 -26.33094,6.12046 -33.17087,20.17912 -6.95727,14.29984 -8.33045,21.92693 -8.80729,48.91871 -0.41566,23.52941 -0.56157,24.69769 -3.23325,25.88983 -1.69643,0.75697 -3.24735,0.76693 -3.93945,0.0253 -0.62783,-0.67274 -3.33036,-9.00156 -6.00563,-18.50849 -3.28615,-11.67779 -8.26366,-24.43793 -15.34326,-39.33333 -16.07307,-33.81759 -20.2944,-49.5251 -20.2944,-75.51521 0,-13.21426 0.47711,-16.36728 4.0414,-26.70799 2.22277,-6.4487 3.78113,-11.98519 3.463,-12.30331 -0.85178,-0.85178 -11.19751,6.24104 -15.02823,10.30305 -8.20818,8.70376 -11.66355,25.78708 -9.47676,46.85309 3.07301,29.60328 3.05923,28.83745 0.53604,29.80569 -3.29601,1.26479 -5.38677,-0.91656 -10.14771,-10.5874 -6.11427,-12.41986 -16.30056,-22.76319 -39.35235,-39.95906 -33.16786,-24.74212 -47.92617,-40.2518 -57.66758,-60.60353 -4.49964,-9.40063 -4.78781,-10.79915 -4.80793,-23.33333 -0.0118,-7.33333 0.51948,-15.71189 1.18057,-18.61903 l 1.20199,-5.28569 -3.86865,2.4583 c -13.76095,8.74425 -16.75818,15.60293 -17.96945,41.12014 -0.51725,10.89659 -1.32907,20.20059 -1.80405,20.67557 -1.71232,1.71232 -8.51086,-2.12608 -25.14973,-14.19932 -11.86323,-8.60802 -17.51649,-11.96289 -18.87624,-11.20194 -1.41018,0.78918 1.62766,3.20315 11.10694,8.82595 16.45672,9.76158 28.15721,18.89673 28.15721,21.9837 0,2.11485 -2.18793,2.54988 -19.29333,3.83611 -24.22562,1.82163 -32.2936,5.07956 -45.64655,18.43251 -4.80652,4.80652 -8.37381,9.10444 -7.92732,9.55093 0.44649,0.44649 4.31402,-0.75991 8.59452,-2.68088 15.2634,-6.84981 22.44041,-7.89829 49.51507,-7.23359 28.36506,0.69637 40.6448,3.25839 64.97483,13.55618 25.75996,10.90302 63.27216,35.34477 64.20962,41.83695 0.67047,4.64314 -2.3743,4.71423 -16.91371,0.3949 -23.79516,-7.069 -43.31299,-8.28844 -58.92581,-3.68157 -5.85442,1.72746 -5.74161,1.75559 10.0839,2.51472 26.13902,1.25386 45.44022,8.99401 75.37552,30.22702 20.85874,14.79503 33.96729,29.12827 59.40517,64.95521 14.81676,20.86807 16.2766,23.64779 13.91418,26.49433 -0.93094,1.12172 -2.19923,2.03948 -2.81842,2.03948 -0.6192,0 -6.69573,-4.82657 -13.50341,-10.72572 -22.44801,-19.45218 -42.44663,-31.18251 -60.07096,-35.23507 -8.41251,-1.93438 -27.0659,-3.05772 -28.41257,-1.71105 -0.40342,0.40342 2.45538,1.7685 6.35289,3.03351 23.18783,7.52605 46.468,26.68935 62.12626,51.13985 8.21281,12.82436 18.84851,34.8736 22.82655,47.32255 4.81338,15.06308 9.01577,39.81184 10.78399,63.50926 1.49564,20.04441 1.78375,46.65044 0.54025,49.89095 -1.64902,4.29728 -5.46585,2.25576 -8.35982,-4.47146 -1.55697,-3.61928 -2.83086,-7.23426 -2.83086,-8.03329 0,-3.45558 -9.52185,-19.92557 -14.46353,-25.01764 -5.09057,-5.24548 -13.53647,-10.79942 -13.53647,-8.90145 0,0.47791 2.0835,6.07647 4.63,12.44124 8.02945,20.06895 10.56442,32.95845 10.63818,54.09165 0.0936,26.82411 -4.79813,47.80579 -16.67633,71.52797 -9.64335,19.2589 -20.74068,32.98587 -53.0199,65.58353 -21.44978,21.66138 -41.93821,38.86888 -70.93889,59.57918 -13.28318,9.4859 -16.96877,11.5333 -18.9003,10.4996 -3.79817,-2.0327 -2.8931,-4.4991 4.69009,-12.781 37.96205,-41.4595 48.5234,-63.80033 58.41889,-123.57575 2.89839,-17.50821 5.0947,-31.90821 4.8807,-31.99999 -5.07626,-2.1771 -5.66381,-3.49885 -7.9713,-17.93218 -2.82621,-17.67792 -8.46944,-33.05284 -15.50187,-42.2347 -4.58323,-5.98406 -5.61286,-6.65068 -10.05594,-6.51059 -2.72245,0.0858 -5.24371,0.44988 -5.60281,0.80897 -0.3591,0.3591 0.86513,3.28887 2.72051,6.5106 6.63116,11.51452 10.27313,25.861 11.01792,43.40185 0.37857,8.91595 0.298,17.76595 -0.17905,19.66666 -1.31932,5.25657 -5.70755,4.36304 -14.82218,-3.01809 -8.35325,-6.76456 -20.66104,-14.4333 -20.66104,-12.87349 0,0.49828 2.67006,4.3053 5.93347,8.46003 20.78736,26.46493 23.97462,71.3863 7.39531,104.22973 -7.48824,14.83412 -32.37874,45.24215 -51.99545,63.52125 -12.70211,11.8361 -66.26489,45.564 -96.15234,60.5461 -18.83088,9.4396 -24.27983,11.7201 -46.51431,19.4672 l -16.66667,5.807 32,-0.4628 c 30.82931,-0.4459 32.56095,-0.6135 47.33333,-4.5831 z M 379.99998,1091.5 c 19.8805,-10.0266 42.08402,-22.8579 57.33333,-33.1325 9.93367,-6.6931 20.65161,-20.4365 25.52308,-32.7277 3.89593,-9.8298 4.39703,-29.39157 0.91296,-35.63986 -2.04662,-3.67039 -2.30441,-3.78026 -3.12837,-1.33333 -7.77105,23.07779 -21.46342,45.35159 -39.22609,63.81049 -19.27218,20.0275 -35.40639,32.0867 -61.74825,46.1523 -7.14999,3.8179 -12.99999,7.1793 -12.99999,7.4699 0,1.2024 15.21476,-5.4614 33.33333,-14.5993 z m 646.06772,-47.3954 c 7.2939,-3.2228 14.6309,-9.8801 18.8806,-17.1318 5.3026,-9.048 5.925,-24.067 1.4022,-33.8302 -4.2013,-9.06913 -11.5916,-16.60046 -20.2422,-20.62855 -15.6362,-7.28088 -35.60802,-2.04291 -46.41094,12.17212 -6.07584,7.99489 -7.68959,13.18689 -7.6607,24.64713 0.0688,27.3074 28.91254,45.8696 54.03104,34.7713 z m 117.3918,-6.4719 c 3.0028,-1.5449 7.3368,-4.947 9.6312,-7.5602 6.6365,-7.5585 8.3133,-15.7702 7.9184,-38.77874 -0.2905,-16.92992 0.012,-20.60835 1.9908,-24.22761 1.2834,-2.34691 2.3334,-4.58472 2.3334,-4.9729 0,-0.38818 -2.2987,-1.87846 -5.1082,-3.31174 -5.7313,-2.92394 -9.0623,-6.99152 -17.482,-21.34803 -6.6722,-11.37691 -15.4899,-20.76743 -22.0903,-23.52522 -10.2537,-4.28426 -25.5781,-0.99502 -35.6036,7.64196 -1.9895,1.71402 -13.2372,14.78021 -24.9947,29.03598 -20.2129,24.50776 -21.2692,26.06922 -19.393,28.66666 9.0649,12.54917 11.9282,22.70644 10.132,35.94214 l -1.0174,7.4972 4.7786,1.4116 c 2.6282,0.7764 17.9786,4.9445 34.1119,9.2626 25.5363,6.8346 30.6278,7.8007 39.3333,7.4631 6.9484,-0.2694 11.6661,-1.245 15.4596,-3.1968 z m -210.16075,-9.0387 c 17.89187,-4.8066 33.42203,-9.238 34.51147,-9.8477 1.4408,-0.8063 2.03521,-3.7854 2.18037,-10.9275 0.22831,-11.23376 3.16724,-19.15575 9.98876,-26.92503 3.90734,-4.45022 4.16113,-5.21099 2.42372,-7.2656 -1.06733,-1.26219 -8.46878,-10.0949 -16.44766,-19.62823 -26.21321,-31.32009 -32.32687,-37.66386 -39.7167,-41.21153 -9.35607,-4.49161 -15.79022,-5.44727 -23.02914,-3.4205 -7.37477,2.06481 -17.30598,10.70757 -23.32096,20.29537 -11.52256,18.36682 -13.77523,21.21514 -19.37313,24.49572 -3.21688,1.88522 -5.84887,3.59738 -5.84887,3.80481 0,0.20742 0.92115,2.58174 2.04699,5.27626 1.62165,3.88117 1.97047,9.5252 1.67872,27.16283 -0.31542,19.0691 -0.025,23.029 2.02375,27.597 3.30941,7.3789 8.4088,12.4485 16.25054,16.1556 11.17869,5.2848 19.18523,4.4985 56.63214,-5.5615 z M 993.521,970.69589 c 8.0312,-3.64424 23.918,-3.65846 33.4646,-0.0299 3.8579,1.46629 7.4063,2.66629 7.8854,2.66666 1.0066,7.8e-4 32.0841,-49.70852 36.6771,-58.66599 3.8597,-7.52735 5.2272,-18.84993 3.1896,-26.4089 -1.9544,-7.25009 -9.3526,-15.51094 -17.6626,-19.72192 -3.5351,-1.79135 -11.6731,-4.47791 -18.0846,-5.97014 -16.0661,-3.73927 -15.4575,-3.50889 -23.0294,-8.71743 l -6.776,-4.66109 -4.5985,4.03756 c -4.5065,3.95671 -7.32222,4.98867 -29.57304,10.83839 -20.11506,5.28824 -29.80307,14.71355 -30.7725,29.93806 -0.86118,13.52458 1.50178,18.68579 23.04363,50.33214 10.85725,15.94999 19.89426,28.99999 20.08225,28.99999 0.18798,0 2.95731,-1.18682 6.15406,-2.63738 z M 596.35001,842.70327 c 3.82519,-5.44344 2.62185,-6.18894 -2.29597,-1.4224 -2.53693,2.45889 -5.53693,7.18347 -6.66667,10.49908 -3.3399,9.80207 -2.30245,10.79214 2.32626,2.22 2.37587,-4.4 5.36224,-9.48351 6.63638,-11.29668 z m -220.35003,15.29668 c 2.49492,-1.42623 8.69918,-1.91926 24.66666,-1.96019 11.73333,-0.0301 23.6258,-0.69127 26.42771,-1.46931 7.07729,-1.96525 14.69407,-9.29584 18.26804,-17.58164 5.04821,-11.70364 4.23362,-19.94295 -5.23883,-52.98886 -4.51943,-15.76666 -9.11898,-31.44038 -10.22122,-34.83048 l -2.00407,-6.16382 -5.70291,0.6428 c -11.10246,1.25141 -22.55017,-2.74903 -34.94395,-12.21128 -1.12064,-0.85557 -9.25971,5.36624 -26.76422,20.45958 -34.33616,29.60648 -37.74732,33.65581 -40.47704,48.04957 -2.71475,14.31483 5.16385,26.43864 24.43483,37.60099 13.06704,7.56883 18.57631,12.08174 21.59729,17.69137 2.77498,5.15282 4.79449,5.71283 9.95771,2.76127 z M 503.3333,824.1031 c 4.4,-2.14211 11.9,-7.28871 16.66667,-11.4369 9.62765,-8.37845 16.17138,-12.18948 23.56906,-13.72649 l 4.94382,-1.02717 -0.34324,-7.40985 c -0.29104,-6.28315 0.69893,-9.99444 6.51067,-24.40769 5.64345,-13.99589 6.86237,-18.46561 6.90185,-25.3087 0.0823,-14.26365 -7.60382,-24.51996 -22.57641,-30.12588 -5.90119,-2.20948 -12.56913,-2.81744 -42.66667,-3.89018 -19.61983,-0.6993 -36.05598,-0.85869 -36.52479,-0.3542 -0.46881,0.50449 -1.82278,4.32324 -3.00882,8.48611 -2.4537,8.61227 -12.5521,20.8981 -19.5649,23.8029 -3.12731,1.29537 -4.00743,2.39697 -3.60346,4.51023 0.294,1.53793 5.89592,16.83293 12.44871,33.98889 10.35865,27.1201 12.69402,32.06369 17.88715,37.86413 11.58631,12.94129 25.00806,16.02212 39.36036,9.0348 z M 316.86344,772.20754 c 7.94878,-2.74712 65.8032,-43.64529 65.8032,-46.51729 0,-1.0025 -0.92313,-3.60786 -2.0514,-5.7897 -3.85849,-7.4615 -4.95922,-17.83167 -2.78685,-26.25551 1.08435,-4.20479 2.35385,-8.625 2.82112,-9.82267 0.80317,-2.05864 -11.85707,-9.68337 -55.81066,-33.61244 -23.16964,-12.61394 -42.81695,-8.78411 -52.08164,10.15222 -1.87674,3.83594 -4.87262,14.01675 -6.65749,22.62403 -2.55282,12.3106 -4.1505,16.91017 -7.48816,21.55778 l -4.24293,5.90818 4.05862,5.10724 c 4.48634,5.64547 6.42097,10.24349 11.47866,27.28134 4.52557,15.24527 10.06985,23.34299 19.24633,28.11024 8.52654,4.42961 17.36974,4.83061 27.7112,1.25658 z m 117.13653,-34.06123 c 13.86171,-6.57239 22.49012,-20.18429 22.49012,-35.47969 0,-15.74043 -7.76525,-27.76553 -22.49012,-34.82769 -20.73948,-9.94682 -44.62827,-0.33076 -52.69373,21.21104 -7.78699,20.79804 2.5573,42.84318 23.63064,50.36022 8.31271,2.96522 21.33826,2.39877 29.06309,-1.26388 z m 68.76088,-40.1212 c 32.49526,-3.50742 38.39582,-5.10616 47.12157,-12.76747 13.36887,-11.73802 14.03606,-25.19493 2.52318,-50.89085 -4.67756,-10.43997 -6.22861,-15.6039 -6.51793,-21.70016 l -0.37966,-8 -5.50836,-0.94544 c -6.42755,-1.10321 -11.19842,-3.86954 -22.85021,-13.24943 -21.01252,-16.91543 -38.12906,-18.92814 -51.62818,-6.07089 -7.70833,7.34181 -10.36109,13.01011 -21.6755,46.31524 l -11.00485,32.39389 3.14133,2.11164 c 1.72772,1.16141 6.254,5.11165 10.05838,8.77832 7.04945,6.79426 12.62602,18.04777 12.62602,25.47929 0,3.28832 0.18837,3.35793 7,2.58668 3.85,-0.43591 20.54239,-2.25428 37.09421,-4.04082 z M 401.17329,665.54212 c 5.84535,-2.71851 9.68458,-3.51097 17.45672,-3.60323 l 9.96336,-0.11827 1.66121,-7.91033 c 6.29767,-29.98818 11.2241,-58.34947 11.2172,-64.57699 -0.0105,-9.4406 -3.14051,-18.16643 -8.52852,-23.77546 -9.20879,-9.58656 -19.84242,-11.85012 -41.9629,-8.93258 -12.97106,1.71079 -15.69162,1.71019 -22.27636,-0.005 -4.12544,-1.07454 -7.71451,-1.95371 -7.97571,-1.95371 -0.26121,0 -2.00999,2.6194 -3.88619,5.82089 -2.40529,4.10432 -6.91172,8.2184 -15.2813,13.95083 -24.70934,16.92376 -31.9667,30.11258 -26.07871,47.3929 3.28206,9.63229 11.9567,17.64745 41.14934,38.02096 l 26.63145,18.58605 5.20853,-4.70559 c 2.8647,-2.58808 8.58054,-6.27383 12.70188,-8.19055 z M 281.04281,463.21662 c 4.16404,-1.77801 8.30763,-1.97104 25.89781,-1.20646 17.70291,0.76949 21.97796,0.56568 27.64966,-1.31816 12.16679,-4.04115 20.34163,-17.60172 20.37165,-33.79281 0.0128,-6.89364 -14.6574,-69.54258 -17.45504,-74.5417 -0.66561,-1.18937 -4.20422,-1.95263 -10.2792,-2.21719 -10.63545,-0.46315 -18.98646,-3.66861 -26.31017,-10.09891 -3.42311,-3.00553 -5.45584,-3.95486 -6.59892,-3.08183 -14.01097,10.70086 -51.146,41.16787 -55.79426,45.77575 -6.97431,6.91375 -11.87475,18.09195 -11.8284,26.98135 0.0606,11.62422 8.03363,21.84362 26.04542,33.3836 10.77697,6.9047 17.03136,12.85595 19.32163,18.38515 1.84892,4.46368 2.35293,4.56085 8.97982,1.73121 z m 129.78703,-29.91989 c 3.21024,-1.61207 10.53601,-6.53967 16.27949,-10.95021 10.02694,-7.69992 20.71164,-13.01321 26.16873,-13.01321 2.27088,0 2.57822,-0.96197 2.54473,-7.96484 -0.0327,-6.83858 0.94648,-10.09088 6.9247,-23 5.94485,-12.83702 7.05561,-16.50877 7.59759,-25.11461 0.73469,-11.66562 -1.75146,-18.26006 -9.28664,-24.63261 -9.60666,-8.1244 -15.53681,-9.68064 -45.05847,-11.82456 -15.03333,-1.09176 -31.50653,-2.16764 -36.60711,-2.39086 l -9.27378,-0.40585 -2.82056,8.19017 c -3.9506,11.47148 -8.96549,17.03448 -22.80569,25.29827 -2.35936,1.40875 -1.96306,3.05087 7.40093,30.66667 5.44159,16.04802 11.2236,32.17822 12.84893,35.84488 6.18484,13.95274 20.8718,23.99463 33.42048,22.85051 3.75642,-0.34249 9.45642,-1.94168 12.66667,-3.55375 z M 227.99999,374.23255 c 6.3123,-2.61456 56.46962,-34.93435 62.92561,-40.54728 2.11691,-1.84047 2.0861,-2.39539 -0.48992,-8.82463 -3.65157,-9.11356 -3.7261,-21.93841 -0.18007,-30.98381 l 2.66178,-6.78981 -26.79204,-16.1424 c -35.04396,-21.11425 -41.29187,-24.24814 -50.15284,-25.15621 -20.63342,-2.11451 -31.92816,9.39801 -38.59443,39.33857 -3.10438,13.9429 -4.90579,18.08962 -9.87504,22.73166 l -3.41699,3.192 3.33872,3.96784 c 5.10609,6.06824 6.78823,10.04191 10.57522,24.9815 5.35324,21.11842 10.27804,29.05548 21.17729,34.13045 8.91974,4.15326 18.95623,4.18882 28.82271,0.10212 z m 116.30272,-29.19256 c 13.2126,-5.60851 22.864,-20.69662 22.84046,-35.70668 -0.034,-21.67931 -17.243,-38.62099 -39.26356,-38.65363 -29.05033,-0.0431 -47.72968,31.63675 -33.7734,57.27904 9.87265,18.13931 30.87074,25.28471 50.1965,17.08127 z m 75.02435,-37.84339 c 27.4342,-2.13096 35.47267,-4.38346 43.79502,-12.272 11.51297,-10.91284 12.29434,-23.71166 2.89803,-47.46909 -4.97366,-12.57529 -6.2267,-17.34763 -6.19679,-23.60113 0.0356,-7.44721 -0.14208,-7.87702 -3.5596,-8.60981 -7.63034,-1.63612 -13.98176,-5.3072 -23.27884,-13.45503 -21.63269,-18.95858 -38.46078,-21.61505 -53.46617,-8.44014 -7.28167,6.39339 -10.21116,12.21805 -22.7945,45.32196 -11.40138,29.99446 -12.42195,33.32862 -10.20177,33.32862 0.65402,0 4.34548,2.83784 8.20325,6.3063 7.8192,7.03013 12.77854,16.219 14.11545,26.15366 l 0.86931,6.45996 12.14476,-0.87801 c 6.67962,-0.4829 23.54195,-1.76328 37.47185,-2.84529 z M 311.93914,272.16766 c 6.07197,-2.82101 9.32918,-3.4274 18.2153,-3.39115 l 10.82113,0.0442 2.11182,-9.41034 c 1.16151,-5.17568 4.53301,-19.91033 7.49223,-32.74367 7.67971,-33.30478 6.97418,-44.19259 -3.56326,-54.98893 -8.97915,-9.19976 -15.53289,-10.40321 -49.01638,-9.0008 -9.01631,0.37764 -13.22586,-0.0343 -16.93025,-1.65665 l -4.93025,-2.15926 -3.39686,5.79629 c -2.33866,3.99064 -6.41013,7.75735 -13.06974,12.09145 -18.47949,12.02653 -19.97273,13.16835 -24.58984,18.80294 -8.98575,10.96591 -10.15655,22.8751 -3.47159,35.31239 4.51255,8.39555 8.98303,12.4152 38.18151,34.33102 l 25.12631,18.85932 4.81285,-4.22573 c 2.64707,-2.32416 8.14022,-5.77162 12.20702,-7.66103 z"
       id="path1" />
  </g>
</svg>
